<?xml version="1.0" standalone="no"?>
<!DOCTYPE svg PUBLIC "-//W3C//DTD SVG 20010904//EN"
 "http://www.w3.org/TR/2001/REC-SVG-20010904/DTD/svg10.dtd">
<svg version="1.0" xmlns="http://www.w3.org/2000/svg"
 width="588.000000pt" height="588.000000pt" viewBox="0 0 588.000000 588.000000"
 preserveAspectRatio="xMidYMid meet">
<metadata>
Created by potrace 1.14, written by Peter Selinger 2001-2017
</metadata>
<g transform="translate(0.000000,588.000000) scale(0.100000,-0.100000)"
fill="#000000" stroke="none">
<path d="M2767 5663 c-2 -1 -30 -5 -63 -7 -65 -5 -165 -16 -192 -20 -9 -2 -37
-7 -62 -11 -56 -8 -331 -75 -345 -83 -5 -4 -14 -7 -20 -8 -46 -9 -218 -79
-350 -144 -128 -63 -392 -221 -415 -249 -3 -4 -25 -22 -50 -41 -65 -51 -88
-70 -139 -117 -25 -24 -50 -43 -54 -43 -4 0 -7 23 -5 52 3 49 5 53 33 59 102
21 174 88 245 228 27 53 64 112 82 132 31 34 121 99 136 99 19 0 102 92 102
113 0 6 -8 4 -17 -4 -28 -22 -56 -36 -88 -43 -67 -14 -84 -16 -170 -21 -187
-9 -278 -30 -323 -72 -7 -7 -21 -18 -30 -25 -54 -40 -114 -172 -105 -232 8
-52 42 -112 83 -146 30 -24 39 -38 35 -54 -3 -11 -7 -45 -9 -74 -5 -49 -10
-59 -63 -114 -77 -80 -78 -81 -152 -172 -62 -75 -65 -78 -74 -55 -5 13 -6 48
-3 78 6 48 12 61 50 98 24 24 42 43 39 43 -13 0 -72 -48 -111 -89 -81 -85
-121 -189 -117 -302 2 -72 2 -73 -75 -223 -42 -83 -82 -164 -88 -181 -6 -16
-24 -65 -40 -107 -17 -43 -28 -78 -27 -78 2 0 -3 -17 -11 -37 -9 -20 -18 -44
-20 -52 -2 -9 -15 -61 -29 -115 -14 -54 -25 -102 -26 -105 0 -5 -14 30 -75
194 -9 22 -22 54 -29 70 -114 247 -90 473 60 565 43 26 96 32 150 16 48 -15
94 -55 97 -84 0 -9 2 -24 3 -32 2 -23 -16 -73 -34 -94 -13 -15 -13 -18 -1 -14
7 2 22 19 32 37 82 147 -91 283 -254 199 -109 -57 -177 -226 -150 -372 13 -68
44 -168 72 -231 87 -192 116 -344 95 -495 -3 -25 -7 -61 -9 -80 -2 -19 -15
-75 -30 -125 -63 -222 -68 -417 -15 -655 34 -149 63 -225 143 -365 22 -38 44
-79 50 -90 6 -11 50 -78 97 -150 48 -71 119 -182 159 -245 152 -241 388 -504
600 -667 30 -24 61 -47 67 -53 7 -6 43 -32 80 -57 38 -26 77 -59 87 -73 11
-14 65 -70 120 -126 96 -95 191 -171 281 -222 53 -30 201 -101 225 -107 3 0
28 -8 55 -17 170 -57 320 -78 520 -73 83 2 159 5 170 8 11 3 43 8 70 11 195
26 425 99 648 206 45 22 135 58 200 80 203 70 439 189 611 310 43 30 85 60 94
65 9 6 22 16 30 23 47 43 84 63 127 68 170 20 292 142 355 354 27 90 18 74
111 212 41 62 79 120 82 128 4 8 20 38 36 65 29 49 31 50 80 52 27 2 73 12
102 24 127 50 196 134 249 304 12 39 28 87 36 107 16 45 11 46 -38 13 -20 -14
-41 -25 -45 -25 -4 0 -55 -29 -112 -65 -57 -36 -105 -65 -106 -65 -3 0 38 114
60 165 12 27 38 103 40 115 0 3 6 21 13 41 7 20 15 45 17 55 3 10 19 69 35
129 17 61 32 124 35 140 3 17 8 46 12 65 3 19 7 44 9 55 18 92 25 412 11 495
-25 156 -92 335 -150 406 -13 16 -35 65 -49 109 -14 44 -40 114 -56 156 -30
75 -31 78 -16 130 59 218 -44 500 -243 664 -93 77 -250 151 -195 92 24 -26 64
-110 69 -147 1 -14 5 -34 7 -45 4 -24 -4 -41 -13 -27 -12 19 -127 146 -187
206 -94 94 -163 156 -234 211 -36 28 -67 53 -70 56 -18 21 -350 229 -365 229
-3 0 -42 18 -87 41 -165 80 -489 187 -622 205 -15 2 -35 6 -45 8 -9 3 -41 8
-71 12 -30 3 -66 8 -80 10 -97 14 -444 27 -453 17z m438 -106 c17 -3 52 -8 79
-12 27 -3 72 -11 100 -16 28 -6 62 -13 76 -15 113 -22 380 -108 380 -123 0 -3
-19 -7 -43 -7 -98 -3 -581 -16 -682 -20 -60 -1 -110 -4 -110 -4 0 -1 -29 -3
-65 -4 -53 -1 -71 2 -96 21 -31 22 -97 34 -110 20 -4 -4 13 -7 38 -7 34 0 49
-5 65 -24 l21 -24 -22 -24 c-53 -61 -149 -115 -221 -123 -22 -3 -62 -10 -90
-15 -27 -5 -63 -12 -80 -15 -60 -10 -251 -45 -275 -50 -76 -17 -169 -36 -195
-40 -26 -4 -331 -79 -360 -89 -5 -1 -22 -6 -37 -11 -16 -4 -28 -11 -28 -17 0
-5 4 -7 9 -3 5 3 12 1 16 -5 3 -5 2 -10 -3 -10 -14 0 -23 -61 -14 -95 l8 -29
33 47 c33 48 35 87 5 87 -29 0 -13 18 24 25 20 5 42 9 47 11 13 3 215 45 235
49 8 1 31 5 50 9 19 3 46 8 60 11 14 3 70 14 125 25 55 11 110 21 121 24 12 2
37 7 55 10 57 10 143 25 164 29 11 3 40 8 65 12 25 4 52 9 60 10 8 1 47 8 87
15 66 11 80 18 156 76 77 59 90 65 143 70 77 7 606 12 618 6 4 -2 -5 -15 -20
-29 l-29 -24 29 18 c29 17 29 17 24 -2 -3 -11 -13 -37 -22 -57 -15 -35 -15
-37 1 -31 39 14 93 57 93 72 0 23 -19 41 -36 34 -8 -3 -14 0 -14 7 0 23 366
-12 459 -45 84 -29 361 -217 496 -336 121 -106 260 -254 348 -371 l28 -37 -24
-58 c-26 -64 -60 -152 -64 -168 -18 -73 -23 -187 -10 -260 8 -43 67 -204 78
-211 11 -6 52 37 85 88 31 48 62 130 70 185 3 23 10 43 14 43 27 0 -14 -189
-70 -324 -59 -144 -73 -194 -75 -280 -3 -131 34 -246 132 -413 38 -65 138
-210 153 -223 4 -3 30 -36 58 -75 28 -38 56 -75 62 -82 24 -29 67 -110 65
-123 -5 -30 -16 -96 -21 -125 -12 -73 -68 -265 -110 -382 -64 -180 -229 -503
-255 -503 -5 0 -9 26 -10 58 0 61 -5 128 -13 177 -3 17 -5 34 -5 39 -1 5 -33
-24 -73 -63 -76 -77 -209 -169 -348 -243 -207 -110 -274 -163 -320 -255 -31
-60 -35 -147 -11 -217 l17 -48 39 63 c51 84 168 198 252 248 120 70 171 67 61
-4 -89 -57 -200 -172 -253 -262 -25 -43 -45 -83 -45 -89 0 -6 -53 -62 -118
-125 -100 -97 -141 -134 -208 -188 -38 -30 -100 -64 -169 -91 -72 -29 -207
-76 -245 -85 -8 -2 -44 -11 -80 -20 -89 -22 -93 -23 -131 -29 -19 -3 -45 -8
-59 -11 -14 -3 -47 -8 -75 -10 -27 -3 -61 -8 -75 -11 -38 -10 -490 -13 -546
-4 -27 5 -74 11 -103 15 -57 7 -63 8 -151 26 -163 32 -377 101 -532 170 -96
43 -239 118 -248 129 -3 4 -10 9 -15 11 -6 2 -34 18 -63 34 -50 29 -70 53 -34
42 81 -24 217 -59 244 -62 134 -18 169 -20 278 -12 74 5 110 11 215 31 11 2
47 12 80 22 33 10 65 19 70 20 18 4 158 65 230 100 39 19 76 34 83 34 6 0 12
5 12 12 0 6 3 8 7 5 3 -4 12 -2 19 4 16 13 48 4 39 -12 -11 -16 14 -64 43 -86
45 -33 158 -72 247 -87 84 -13 106 -8 63 15 -13 7 -63 43 -113 81 -105 80
-147 102 -192 100 -50 -2 -40 12 25 33 31 10 63 23 70 28 6 5 12 6 12 2 0 -4
7 -2 15 5 8 7 15 10 15 7 0 -4 19 1 43 9 23 9 53 18 67 20 14 3 33 7 42 10 19
5 46 11 98 19 83 14 115 23 89 24 -31 1 -239 -34 -289 -49 -19 -6 -42 -13 -50
-15 -72 -16 -258 -88 -362 -140 -38 -19 -68 -32 -68 -28 0 3 -6 1 -13 -4 -12
-10 -123 -49 -168 -59 -206 -46 -362 -43 -582 11 -90 21 -197 64 -347 138
-141 70 -148 75 -245 175 -55 56 -113 118 -130 137 -16 20 -35 41 -41 48 -37
43 -99 148 -116 195 -46 131 -33 304 34 439 86 173 226 264 385 250 68 -6 94
-12 122 -27 12 -6 21 -7 21 -2 0 16 -111 45 -174 45 -155 0 -285 -93 -373
-268 -35 -68 -66 -195 -66 -267 0 -38 -3 -68 -7 -68 -6 0 -32 53 -73 150 -17
38 -57 154 -63 182 -2 10 -6 26 -9 35 -36 133 -50 243 -49 403 0 152 5 191 33
271 26 77 44 108 85 152 41 43 35 46 -25 15 -135 -72 -213 -236 -209 -438 1
-53 -1 -63 -12 -52 -9 9 -13 50 -13 145 0 121 2 138 28 203 15 39 37 81 48 93
12 12 19 25 16 27 -3 3 -20 -14 -40 -38 -40 -49 -99 -163 -90 -172 4 -3 1 -6
-6 -6 -9 0 -10 25 -6 98 3 53 7 108 10 122 3 14 7 39 10 55 25 150 82 314 161
463 45 86 142 230 194 289 58 65 62 75 13 35 -28 -24 -78 -73 -110 -110 -32
-36 -63 -70 -69 -76 -20 -21 -121 -171 -149 -221 -29 -52 -64 -138 -71 -169
-2 -10 -8 -33 -14 -51 -6 -18 -12 -41 -14 -51 -3 -10 -9 -40 -15 -65 -12 -54
-24 -156 -25 -221 -1 -51 -15 -68 -17 -20 -1 15 -3 41 -4 57 -5 44 -6 301 -1
365 5 59 18 98 82 235 42 89 101 187 259 425 181 274 223 346 265 460 12 31
29 53 55 70 38 25 38 25 11 28 -30 4 -29 2 -16 37 5 14 12 36 14 48 3 12 7 33
10 47 3 13 8 42 12 64 3 22 7 43 9 46 2 3 6 39 10 79 l5 74 58 56 c227 220
500 401 777 517 50 20 104 43 120 50 39 16 257 82 295 89 17 3 63 12 103 21
80 16 114 22 202 30 33 3 62 7 64 9 5 5 491 -2 526 -8z m-2190 -854 c-14 -90
-22 -126 -40 -189 -9 -30 -16 -56 -16 -59 0 -24 -93 -239 -127 -294 l-20 -33
-20 23 -21 22 33 33 c51 51 58 113 27 215 -20 64 -19 77 14 117 101 125 166
202 172 202 2 0 2 -17 -2 -37z m-244 -567 c5 -17 9 -41 9 -52 0 -20 -104 -189
-136 -221 -8 -8 -14 -18 -14 -23 0 -5 -6 -15 -13 -22 -19 -19 -167 -238 -167
-247 0 -4 -8 -16 -18 -27 -10 -10 -22 -28 -27 -39 -7 -17 -9 -18 -12 -3 -8 33
63 292 116 427 46 113 118 268 143 303 l19 27 45 -46 c26 -25 50 -60 55 -77z
m4542 -243 c34 -95 54 -153 63 -188 4 -16 8 -34 10 -40 22 -87 42 -176 49
-225 3 -20 7 -45 9 -55 3 -17 9 -64 21 -180 6 -48 5 -345 0 -399 -6 -59 -12
-67 -31 -42 -7 11 -24 31 -37 46 -48 53 -188 232 -225 288 -58 84 -118 209
-137 282 -38 142 -36 253 6 360 5 14 26 34 45 45 41 22 174 147 174 164 0 6 6
11 14 11 8 0 24 -28 39 -67z m221 -363 c2 -8 6 -24 10 -35 22 -58 26 -73 31
-105 2 -19 6 -45 9 -57 15 -70 22 -306 12 -378 -3 -16 -7 -52 -10 -80 -3 -27
-8 -60 -10 -71 -2 -12 -7 -39 -10 -60 -13 -76 -17 -46 -10 66 11 181 7 365
-11 510 -6 53 -15 116 -20 140 -3 14 -7 34 -9 45 -2 11 -7 40 -10 65 l-7 45
16 -35 c9 -19 17 -41 19 -50z m-1123 -2541 c19 -7 38 -15 42 -19 5 -4 -28 -33
-72 -64 -98 -70 -263 -168 -270 -161 -6 6 240 250 255 253 6 1 26 -3 45 -9z
m-2158 -558 c45 -11 93 -22 107 -25 14 -2 36 -7 50 -10 36 -8 78 -15 138 -22
29 -3 63 -7 75 -10 29 -6 212 -15 302 -14 146 0 300 15 473 45 78 13 -8 -31
-96 -50 -9 -2 -44 -10 -77 -19 -33 -8 -78 -18 -100 -21 -23 -3 -52 -7 -65 -10
-50 -10 -281 -22 -300 -15 -3 1 -36 3 -75 5 -112 6 -258 32 -365 65 -19 6 -42
13 -50 15 -8 2 -28 9 -45 16 -16 6 -35 13 -41 14 -31 7 -223 108 -219 115 3 5
50 -7 105 -25 55 -19 137 -43 183 -54z"/>
<path d="M2321 5429 c-39 -24 -36 -29 21 -40 55 -10 94 11 78 41 -14 26 -55
26 -99 -1z"/>
<path d="M2463 5375 c-20 -14 -53 -72 -53 -93 0 -15 89 37 100 58 13 25 13 28
-8 39 -14 7 -25 6 -39 -4z"/>
<path d="M2574 5363 c-19 -19 -48 -83 -41 -90 7 -7 65 25 88 48 15 15 17 24 9
39 -13 25 -33 25 -56 3z"/>
<path d="M3738 5255 c-12 -24 -19 -47 -16 -51 11 -10 42 4 76 35 38 35 34 61
-9 61 -25 0 -33 -7 -51 -45z"/>
<path d="M3513 5263 c-13 -2 -23 -10 -23 -18 0 -7 -9 -34 -20 -59 -22 -53 -13
-59 40 -23 49 33 60 55 35 73 -17 13 -18 16 -5 24 15 10 11 10 -27 3z"/>
<path d="M3103 5189 c-48 -24 -53 -34 -20 -42 69 -16 127 12 98 47 -17 21 -28
20 -78 -5z"/>
<path d="M3272 5183 c-10 -16 -24 -42 -30 -60 -9 -28 -9 -31 6 -26 9 4 31 15
47 26 17 11 31 21 33 22 13 9 8 47 -8 55 -26 14 -26 14 -48 -17z"/>
<path d="M3563 5165 c-20 -22 -47 -84 -41 -91 8 -7 70 25 85 45 15 19 17 51 4
51 -5 0 -15 2 -23 5 -7 2 -19 -2 -25 -10z"/>
<path d="M1826 5147 c9 -24 81 -70 99 -63 24 9 29 34 10 52 -9 10 -39 19 -66
22 -42 4 -48 2 -43 -11z"/>
<path d="M1650 5113 c0 -7 60 -63 69 -64 3 0 14 -2 24 -4 9 -2 22 5 27 16 17
30 -20 59 -75 59 -25 0 -45 -3 -45 -7z"/>
<path d="M1929 4903 c0 -5 -1 -28 -3 -53 -2 -25 -6 -58 -9 -75 -9 -39 -18
-108 -22 -165 -2 -25 -9 -76 -15 -115 -7 -38 -14 -83 -16 -100 -10 -90 -13
-112 -23 -173 -10 -59 -14 -94 -25 -192 -2 -14 -8 -59 -15 -100 -6 -41 -13
-88 -15 -105 -10 -77 -18 -137 -31 -220 -8 -49 -17 -115 -20 -145 -3 -30 -7
-66 -10 -80 -7 -40 -16 -102 -20 -135 -2 -16 -6 -52 -10 -80 -3 -27 -7 -61 -9
-75 -2 -14 -6 -41 -10 -60 -5 -31 -10 -60 -20 -135 -1 -11 -6 -47 -10 -80 -11
-88 -16 -126 -23 -165 -3 -19 -7 -53 -7 -74 l-1 -39 108 -1 c60 -1 111 2 113
6 5 8 8 29 19 123 3 28 10 74 15 103 5 29 9 56 9 60 -1 4 0 9 1 12 1 3 3 16 4
30 1 14 6 48 10 75 4 28 10 64 12 80 3 17 6 49 9 70 2 22 4 40 5 40 1 0 3 14
5 31 3 33 23 172 31 214 2 14 6 50 9 80 3 30 10 80 15 110 5 30 11 75 14 100
4 25 8 54 10 65 4 22 27 194 31 235 2 14 4 26 5 28 1 1 3 10 4 20 3 30 18 135
22 155 2 11 6 43 9 71 2 28 7 65 10 81 3 17 7 44 10 61 4 22 -15 94 -65 245
-68 204 -78 238 -79 267 -1 13 -21 17 -22 5z"/>
<path d="M2058 4904 c-5 -5 11 -54 43 -129 8 -20 68 -191 73 -210 2 -5 6 -17
9 -25 8 -20 177 -521 182 -540 2 -8 29 -87 60 -175 30 -88 57 -167 59 -175 2
-8 57 -174 122 -368 l118 -353 83 163 c45 90 82 169 82 177 1 13 -165 348
-244 496 -72 133 -474 928 -550 1088 -29 61 -29 60 -37 51z"/>
<path d="M3775 4856 c-26 -58 -206 -420 -325 -651 -174 -337 -261 -509 -403
-790 -83 -165 -155 -301 -159 -303 -4 -2 -8 -10 -8 -19 0 -8 -14 -40 -32 -71
-30 -56 -167 -319 -298 -577 l-66 -130 -84 -1 c-144 -1 -253 -46 -339 -139
-40 -43 -79 -109 -87 -149 -15 -66 -20 -116 -13 -128 4 -7 9 -27 12 -45 11
-72 91 -179 174 -234 60 -40 180 -74 248 -70 27 2 80 9 80 11 0 1 9 3 19 5 49
9 155 73 201 120 63 65 94 127 103 207 16 135 -40 254 -160 342 l-37 28 46 86
c62 118 66 123 193 194 211 119 207 117 224 157 8 22 66 189 127 373 62 183
116 344 122 358 6 14 11 30 12 35 2 6 19 57 39 115 21 58 39 112 41 120 2 8
38 116 80 240 42 124 78 232 80 240 6 27 212 624 234 678 28 69 7 68 -24 -2z
m-755 -1955 c101 -88 -6 -240 -135 -191 -89 34 -102 151 -23 200 47 29 118 25
158 -9z m-569 -695 c90 -8 202 -106 229 -200 37 -132 -40 -274 -176 -326 -76
-28 -197 -25 -260 8 -180 93 -221 285 -91 429 20 22 56 49 80 62 45 23 127 40
162 34 11 -2 36 -5 56 -7z"/>
<path d="M3921 4893 c-5 -10 -9 -20 -9 -23 1 -3 -7 -32 -17 -65 -10 -33 -19
-64 -21 -70 -1 -5 -17 -50 -34 -100 -17 -49 -34 -101 -36 -115 -3 -13 -9 -29
-14 -35 -13 -16 -18 -82 -10 -123 8 -36 17 -98 25 -177 2 -22 9 -71 15 -110 6
-38 13 -83 15 -100 2 -16 7 -48 11 -70 4 -22 8 -51 9 -65 1 -14 4 -45 8 -70
11 -65 18 -120 21 -160 2 -19 9 -64 15 -100 15 -90 29 -195 35 -252 2 -18 6
-51 10 -73 12 -80 17 -111 20 -140 2 -16 9 -68 16 -114 14 -105 19 -142 26
-211 3 -30 10 -71 15 -90 5 -19 9 -47 9 -61 0 -20 6 -28 23 -31 43 -7 212 -1
210 8 -8 45 -15 102 -15 114 0 8 -4 31 -8 50 -5 19 -11 60 -14 90 -3 30 -7 64
-10 75 -4 24 -13 90 -22 160 -3 28 -8 61 -10 75 -2 14 -6 43 -8 65 -5 40 -23
152 -33 210 -3 17 -5 37 -5 45 0 16 -12 105 -23 175 -4 22 -8 54 -10 70 -3 36
-14 111 -20 145 -3 14 -7 50 -10 80 -3 30 -7 62 -10 70 -2 8 -7 40 -10 70 -3
30 -9 69 -11 85 -12 71 -15 92 -18 120 -4 31 -13 104 -22 165 -3 19 -7 51 -10
70 -6 49 -25 187 -31 235 -3 22 -6 52 -6 68 1 15 -2 27 -6 27 -4 0 -6 20 -6
45 2 50 -8 66 -24 38z"/>
<path d="M1280 4779 c-15 -56 -59 -133 -104 -182 -56 -59 -116 -157 -116 -187
0 -8 48 -23 85 -25 33 -2 89 31 133 79 67 72 76 119 46 231 -9 33 -18 74 -21
90 -7 43 -10 42 -23 -6z"/>
<path d="M4914 3025 c38 -35 69 -111 70 -170 2 -58 -15 -121 -68 -255 -21 -52
-40 -116 -43 -142 -11 -100 58 -213 161 -263 56 -27 171 -44 220 -31 30 7 30
6 -2 137 -16 65 -66 150 -120 207 -55 58 -60 75 -15 51 83 -43 169 -179 180
-283 9 -91 23 -43 19 69 -7 234 -148 499 -349 659 -61 49 -99 63 -53 21z"/>
<path d="M3157 2753 c-3 -5 -9 -25 -12 -43 -10 -57 -22 -72 -48 -59 -21 12
-21 11 -4 -8 16 -19 16 -20 0 -35 -10 -8 -33 -20 -50 -28 -44 -17 -41 -32 10
-53 49 -20 111 -71 131 -107 7 -14 27 -50 45 -82 17 -31 31 -60 31 -65 0 -4
-14 -14 -31 -22 -95 -42 -183 -173 -193 -287 -19 -211 176 -409 407 -414 178
-4 361 117 413 272 17 53 26 154 15 173 -3 6 -7 19 -8 30 -8 49 -58 127 -114
179 -81 72 -173 108 -283 110 l-78 1 -113 224 c-61 123 -115 220 -118 214z
m429 -568 c186 -82 233 -296 95 -434 -67 -67 -112 -85 -220 -88 -89 -2 -98 0
-154 30 -170 90 -209 285 -84 424 37 40 106 81 154 89 15 3 29 6 30 8 10 10
137 -10 179 -29z"/>
<path d="M1470 2250 c35 -24 54 -31 30 -11 -14 11 -29 21 -35 21 -5 0 -3 -5 5
-10z"/>
<path d="M1571 2160 c14 -31 19 -36 19 -24 0 6 -7 19 -16 30 -14 18 -14 18 -3
-6z"/>
<path d="M1590 2111 c0 -6 4 -13 10 -16 6 -3 7 1 4 9 -7 18 -14 21 -14 7z"/>
<path d="M3124 1491 c-95 -68 -191 -209 -209 -305 -7 -37 -7 -38 16 -31 49 15
104 61 147 122 23 33 85 173 76 173 -2 0 2 13 11 30 26 50 16 53 -41 11z"/>
<path d="M3437 1485 c-150 -51 -277 -170 -277 -260 0 -25 3 -27 28 -20 73 18
160 89 245 202 26 34 55 69 63 78 9 9 15 17 13 19 -2 2 -34 -6 -72 -19z"/>
<path d="M2926 1483 c-10 -3 -24 -9 -30 -14 -6 -5 -26 -21 -44 -35 -90 -72
-148 -230 -118 -322 l7 -22 30 20 c42 31 72 90 113 220 21 70 44 124 58 138
22 22 20 24 -16 15z"/>
<path d="M3709 1423 c-129 -25 -234 -80 -277 -143 l-23 -35 21 -9 c29 -13 141
9 204 41 56 29 217 145 209 153 -8 9 -71 6 -134 -7z"/>
<path d="M2697 1410 c-51 -41 -123 -173 -134 -250 -11 -68 3 -140 26 -140 24
0 87 109 97 167 2 13 6 35 9 50 2 16 7 55 11 88 4 33 9 65 13 70 6 11 11 35 6
35 -1 0 -14 -9 -28 -20z"/>
<path d="M2488 1313 c-67 -70 -127 -207 -123 -278 4 -54 5 -60 20 -79 14 -19
16 -19 40 10 51 58 85 169 89 291 0 24 5 43 10 43 5 0 6 3 3 6 -3 4 -2 15 4
25 16 31 -4 22 -43 -18z"/>
<path d="M2047 1260 c-76 -82 -112 -158 -112 -235 1 -62 24 -115 50 -115 16 0
69 82 84 130 6 19 13 53 16 75 18 122 26 172 31 188 10 32 -13 18 -69 -43z"/>
<path d="M2273 1263 c-112 -115 -148 -240 -95 -325 l23 -38 26 28 c49 53 75
129 88 257 3 28 10 67 16 89 6 21 8 40 5 43 -3 3 -31 -21 -63 -54z"/>
<path d="M3787 1224 c-1 -1 -29 -4 -62 -7 -33 -3 -68 -9 -78 -13 -17 -6 -16
-9 8 -34 31 -32 122 -76 181 -87 45 -8 166 -8 208 2 16 3 40 12 54 19 l25 13
-34 26 c-44 33 -138 64 -228 75 -39 5 -72 8 -74 6z"/>
<path d="M3335 1200 c-3 -5 -2 -10 4 -10 5 0 13 5 16 10 3 6 2 10 -4 10 -5 0
-13 -4 -16 -10z"/>
<path d="M3376 1198 c3 -5 10 -6 15 -3 13 9 11 12 -6 12 -8 0 -12 -4 -9 -9z"/>
<path d="M3427 1173 c-21 -3 -27 -9 -23 -20 3 -8 6 -20 6 -28 0 -20 71 -88
115 -111 78 -40 234 -65 241 -39 3 12 -145 136 -202 169 -42 25 -92 35 -137
29z"/>
<path d="M3181 1129 c-5 -15 -5 -31 1 -42 14 -26 5 -31 -35 -18 -75 25 -136
29 -179 12 -34 -13 -35 -21 -3 -59 46 -55 168 -90 315 -91 52 0 114 -5 137 -9
23 -5 61 -8 83 -7 42 3 65 14 42 22 -7 3 -18 10 -25 17 -6 6 -26 21 -42 33
-17 12 -48 38 -70 58 -69 64 -125 97 -171 103 -39 4 -45 2 -53 -19z"/>
<path d="M2668 938 c-9 -55 77 -169 182 -241 47 -33 153 -88 158 -82 5 4 -153
227 -190 266 -67 73 -143 101 -150 57z"/>
<path d="M2446 872 c-12 -20 12 -71 53 -112 57 -56 154 -104 254 -124 96 -20
107 -20 77 1 -29 19 -155 119 -188 149 -62 56 -182 108 -196 86z"/>
<path d="M2273 800 c-65 -26 22 -142 157 -210 44 -22 135 -54 147 -52 2 1 16
-3 32 -8 45 -13 43 -2 -7 43 -26 23 -50 46 -53 50 -4 5 -37 40 -73 77 -88 89
-151 120 -203 100z"/>
<path d="M1978 783 c-29 -7 -21 -49 17 -92 62 -68 204 -121 325 -121 l55 0
-54 30 c-29 16 -80 52 -114 79 -96 79 -178 116 -229 104z"/>
<path d="M5198 3604 c-42 -65 -60 -130 -59 -221 0 -46 2 -87 5 -92 4 -5 8 -22
10 -38 5 -31 35 -116 54 -151 17 -29 28 -21 56 41 52 114 54 180 8 306 -19 53
-37 118 -41 145 l-6 50 -27 -40z"/>
<path d="M310 4166 c0 -2 7 -7 16 -10 8 -3 12 -2 9 4 -6 10 -25 14 -25 6z"/>
<path d="M435 4150 c-3 -5 -1 -10 4 -10 6 0 11 5 11 10 0 6 -2 10 -4 10 -3 0
-8 -4 -11 -10z"/>
<path d="M370 4139 c0 -5 11 -9 25 -9 14 0 25 2 25 4 0 2 -11 6 -25 8 -14 3
-25 1 -25 -3z"/>
<path d="M4779 792 c-20 -14 -51 -17 -205 -18 -192 -1 -217 -6 -276 -57 l-27
-23 19 -40 c19 -43 71 -95 110 -110 33 -14 100 -10 142 6 80 32 188 126 246
213 29 43 26 54 -9 29z"/>
</g>
</svg>
